 http://img705.imageshack.us/img705/6728/thehitlist.jpg

Country.......: USA
Genre.........: Action, Thriller
Date release..: 03.04.2011 [World]
Director......: William Kaufman
Writers.......: Chad Law, Evan Law
Duration......: 90 min.
More..........: http://www.imdb.com/title/tt1575694
Trailer.......: http://www.imdb.com/video/screenplay/vi2713361689
Trailer.......:

Pilot :
A disgruntled man creates a hit list with a stranger during a drunken night out and must then race to try to save those he marked for extermination as the bodies begin to pile up and all fingers point to him. 

Cats :
Cuba Gooding Jr.   	 ...  	Jonas Arbor
Cole Hauser 	... 	Allan Campbell
Jonathan LaPaglia 	... 	Detective Neil McKay
Ginny Weirick 	... 	Sydney Campbell
Drew Waters 	... 	Mike Dodd
Sean Cook 	... 	Brian Felzner
Michael Papajohn 	... 	Special Agent Drake Ford
J.P. O Shaughnessy 	... 	Lieutenant Ben Harp
David Andriole 	... 	Detective Ray Lowery
Brandon O Neill 	... 	Dom Estacado
Daniel Brockley 	... 	Drew McAllister
Katarzyna Wolejnio 	... 	Victor Rosen s Secretary
Tracy Schornick 	... 	Bartender
Holt Boggs 	... 	Officer Turnkey
Stephanie Vigil 	... 	TV News Reporter #1 

Data Technical :
!!! SAMPLE !!!
Audio.....: English
Subtitles.: None
Format                           : AVI
Format/Info                      : Audio Video Interleave
File size                        : 701 MiB
Duration                         : 1h 30mn
Overall bit rate                 : 1 087 Kbps
Writing application              : VirtualDubMod 1.5.10.2 (build 2540/release)
Writing library                  : VirtualDubMod build 2540/release
Video
ID                               : 0
Format                           : MPEG-4 Visual
Format profile                   : Advanced Simple@L5
Format settings, BVOP            : Yes
Format settings, QPel            : No
Format settings, GMC             : No warppoints
Format settings, Matrix          : Default (H.263)
Codec ID                         : XVID
Codec ID/Hint                    : XviD
Duration                         : 1h 30mn
Bit rate                         : 914 Kbps
Width                            : 640 pixels
Height                           : 352 pixels
Display aspect ratio             : 16:9
Frame rate                       : 23.976 fps
Color space                      : YUV
Chroma subsampling               : 4:2:0
Bit depth                        : 8 bits
Scan type                        : Progressive
Bits/(Pixel*Frame)               : 0.169
Stream size                      : 589 MiB (84%)
Writing library                  : XviD 63
Audio
ID                               : 1
Format                           : MPEG Audio
Format version                   : Version 1
Format profile                   : Layer 3
Mode                             : Joint stereo
Mode extension                   : MS Stereo
Codec ID                         : 55
Codec ID/Hint                    : MP3
Duration                         : 1h 30mn
Bit rate mode                    : Variable
Bit rate                         : 160 Kbps
Channel(s)                       : 2 channels
Sampling rate                    : 48.0 KHz
Stream size                      : 104 MiB (15%)
Alignment                        : Aligned on interleaves
Interleave, duration             : 24 ms (0.58 video frame)
Interleave, preload duration     : 114 ms
Writing library                  : LAME3.90.
Encoding settings                : -m j -V 4 -q 2 -lowpass 18 --abr 160

Screen : 
http://img217.imageshack.us/img217/3046/thehitlist2011s1.jpg 
http://img585.imageshack.us/img585/859/thehitlist2011s2.jpg 
http://img41.imageshack.us/img41/8733/thehitlist2011s3.jpg 
http://img38.imageshack.us/img38/9148/thehitlist2011s4.jpg 
http://img197.imageshack.us/img197/4923/thehitlist2011s5.jpg